Coordinates
version=1
nRows=14
nColumns=40
inDegrees=yes

Units are S.I. units (second, meters, Newtons, ...)
Angles are in degrees.

endheader
time	pelvis_tilt	pelvis_list	pelvis_rotation	pelvis_tx	pelvis_ty	pelvis_tz	hip_flexion_r	hip_adduction_r	hip_rotation_r	knee_angle_r	knee_angle_r_beta	ankle_angle_r	subtalar_angle_r	mtp_angle_r	hip_flexion_l	hip_adduction_l	hip_rotation_l	knee_angle_l	knee_angle_l_beta	ankle_angle_l	subtalar_angle_l	mtp_angle_l	lumbar_extension	lumbar_bending	lumbar_rotation	arm_flex_r	arm_add_r	arm_rot_r	elbow_flex_r	pro_sup_r	wrist_flex_r	wrist_dev_r	arm_flex_l	arm_add_l	arm_rot_l	elbow_flex_l	pro_sup_l	wrist_flex_l	wrist_dev_l
      0.00000000	     -2.67812984	      5.10222926	    -11.99136480	     -0.59674306	      0.92454880	     -0.96769383	     -9.21176584	     -8.24838703	    -15.59966255	    -16.41453074	     -0.28648761	     13.87109904	     10.68615639	    -17.65971774	     25.92841645	      6.93001884	     23.42378917	     -9.29643756	     -0.16225344	     -1.85086888	      3.66922637	      2.47212542	     -1.07019126	     -6.60111479	     13.36690005	     14.16087992	    -13.57399203	      2.44835271	     48.70631028	     89.95437384	      0.00000000	      0.00000000	    -21.54042521	      5.03369545	      2.76132621	     11.79365914	     89.95437384	      0.00000000	      0.00000000
      0.01000000	     -2.54329099	      5.33331572	    -12.23210348	     -0.58277193	      0.92340539	     -0.97041893	     -9.83656021	     -9.04266943	    -15.13944708	    -16.99113230	     -0.29655120	     13.39033135	     10.32735799	    -17.29049958	     25.77443333	      6.58006775	     22.90890019	    -10.56198940	     -0.18434149	     -1.88789240	      3.74944467	      2.41436945	     -0.82289007	     -6.79502131	     13.42973288	     13.84636516	    -13.60633611	      2.39074941	     49.04700066	     89.95437384	      0.00000000	      0.00000000	    -21.95656176	      5.07613542	      2.38566830	     11.15485804	     89.95437384	      0.00000000	      0.00000000
      0.02000000	     -2.17287486	      5.63314801	    -12.43208041	     -0.56810485	      0.92282999	     -0.97376335	    -10.73221208	    -10.05543198	    -15.04796681	    -17.61535239	     -0.30744590	     12.72960239	     10.15824554	    -17.01922737	     25.26099710	      6.00280247	     22.86901544	    -11.75801938	     -0.20521615	     -1.89435832	      4.13289959	      2.36377845	     -0.75272005	     -7.03430787	     13.47988755	     13.30421489	    -13.65069974	      2.06036127	     49.57205832	     89.95437384	      0.00000000	      0.00000000	    -22.10195475	      5.11610444	      1.58672666	     10.17425903	     89.95437384	      0.00000000	      0.00000000
      0.03000000	     -1.41344275	      6.34830613	    -12.73046612	     -0.55291986	      0.92315253	     -0.97734924	    -11.88453766	    -11.81771319	    -15.61199922	    -18.33376195	     -0.31998451	     11.62405554	     11.17498662	    -17.14253150	     24.00754331	      4.79877026	     23.42690077	    -11.85856979	     -0.20697109	     -4.40023619	      4.77613588	      2.77999144	     -0.98828029	     -7.80430535	     13.80716279	     12.51000062	    -13.62905348	      1.24307266	     50.05764482	     89.95437384	      0.00000000	      0.00000000	    -22.48934361	      5.50029881	     -0.79616465	     10.12580210	     89.95437384	      0.00000000	      0.00000000
      0.04000000	     -0.98046593	      7.01973445	    -12.72849153	     -0.53825656	      0.92325341	     -0.98133579	    -12.57779211	    -13.37133287	    -16.14119241	    -19.37065933	     -0.33808178	     10.63425707	     11.79093096	    -17.31028247	     23.35590542	      3.71098782	     23.43139885	    -12.11021503	     -0.21136313	     -6.84907278	      5.34723095	      2.79380581	     -0.93531530	     -8.47506107	     13.73468900	     11.91780796	    -13.59130377	      0.76022535	     50.15525557	     89.95437384	      0.00000000	      0.00000000	    -22.76316659	      5.89533302	     -3.15709532	     10.00065504	     89.95437384	      0.00000000	      0.00000000
      0.05000000	     -0.74154640	      7.51636724	    -12.60820148	     -0.52371748	      0.92342646	     -0.98551385	    -13.00379466	    -14.59980469	    -16.29801659	    -20.52858606	     -0.35829142	      9.14541717	     11.53833312	    -16.87724863	     23.04184554	      2.91752659	     22.91142456	    -12.90162292	     -0.22517580	     -8.04629043	      5.11270790	      2.54442489	     -0.73533307	     -8.90871157	     13.46900105	     11.28735408	    -13.44906105	      0.14353374	     50.15682280	     89.95437384	      0.00000000	      0.00000000	    -22.82449586	      6.08899874	     -4.14154772	      9.55131183	     89.95437384	      0.00000000	      0.00000000
      0.06000000	     -0.45989753	      8.30961808	    -12.40714320	     -0.50915009	      0.92384422	     -0.99030117	    -13.20958896	    -16.33435866	    -17.08242662	    -22.15139153	     -0.38661472	      7.71359014	     12.30072164	    -16.64264368	     22.96496565	      1.87457908	     22.33613553	    -14.39354096	     -0.25121468	     -8.89705576	      4.84782468	      1.53759148	     -0.54376574	     -9.63266743	     13.23472787	     10.54606147	    -13.30404886	     -0.63720740	     50.07679043	     89.95437384	      0.00000000	      0.00000000	    -22.88940442	      6.50970782	     -6.19331224	      9.51770604	     89.95437384	      0.00000000	      0.00000000
      0.07000000	     -0.63148306	      8.84668787	    -11.96948003	     -0.49489432	      0.92394129	     -0.99529933	    -12.73347703	    -17.56224288	    -17.42446114	    -24.18424884	     -0.42209477	      5.90296232	     11.77900943	    -15.95943826	     23.72787636	      1.15221505	     21.56685397	    -16.83975583	     -0.29390918	     -8.24477499	      5.84356676	      0.67250031	      0.01244242	     -9.98817248	     12.79962171	      9.80520533	    -13.12705602	     -1.40884324	     49.74390466	     89.95437384	      0.00000000	      0.00000000	    -22.72749650	      6.80405561	     -7.38144421	      9.16352737	     89.95437384	      0.00000000	      0.00000000
      0.08000000	     -0.62543095	      9.30167140	    -11.44428912	     -0.48042358	      0.92464180	     -1.00004391	    -12.40922101	    -18.63831081	    -17.73787822	    -26.24135178	     -0.45799799	      3.22868646	     10.45878646	    -14.90205744	     24.15282568	      0.34134592	     21.00643360	    -19.00790141	     -0.33175046	     -7.53523319	      6.44695048	      0.34357456	      0.32652622	    -10.34519717	     12.22320666	      8.99782791	    -12.90080391	     -2.20499716	     49.44347898	     89.95437384	      0.00000000	      0.00000000	    -22.45150653	      7.11122387	     -7.96280780	      8.82884714	     89.95437384	      0.00000000	      0.00000000
      0.09000000	     -0.67517463	      9.59030913	    -10.83591718	     -0.46620232	      0.92555891	     -1.00461786	    -11.81482096	    -19.49525061	    -18.08263745	    -28.63192274	     -0.49972132	      0.28211013	      9.14825627	    -13.84204327	     24.28109695	     -0.58399415	     19.69929450	    -20.43942861	     -0.35673533	     -6.68739848	      6.71420485	      0.05680057	      0.60353506	    -10.53815280	     11.62382573	      8.20502702	    -12.63496861	     -3.15362077	     48.88122826	     89.95437384	      0.00000000	      0.00000000	    -21.94293536	      7.44916158	     -8.54175789	      8.38906847	     89.95437384	      0.00000000	      0.00000000
      0.10000000	     -1.01012863	     10.43964694	    -10.13085776	     -0.45236384	      0.92619448	     -1.01009592	    -10.44778150	    -20.98118180	    -18.20328813	    -31.52373361	     -0.55019294	     -2.85292214	      7.41990587	    -12.48388865	     24.44454375	     -2.62572441	     17.08362360	    -20.90090271	     -0.36478957	     -6.04488695	     10.02313938	     -0.00261984	      1.29384445	    -11.24065481	     11.08311403	      7.27025045	    -12.31637131	     -4.29894711	     48.32852757	     89.95437384	      0.00000000	      0.00000000	    -21.52990314	      8.04534205	    -10.16716006	      8.41160746	     89.95437384	      0.00000000	      0.00000000
      0.11000000	     -0.95790318	     10.86076432	     -9.59812008	     -0.43831059	      0.92744517	     -1.01456318	     -9.56613858	    -21.88395411	    -17.90428570	    -33.99549895	     -0.59333339	     -6.79205808	      5.34800188	    -11.15382658	     24.06972957	     -3.81583588	     16.05976920	    -21.72507520	     -0.37917409	     -4.99600196	     10.68323880	     -0.14934585	      1.44669932	    -11.60376457	     10.55358792	      6.37643063	    -12.13494867	     -5.04015911	     47.79069865	     89.95437384	      0.00000000	      0.00000000	    -20.82464071	      8.47335241	    -10.50438195	      8.12376238	     89.95437384	      0.00000000	      0.00000000
      0.12000000	     -0.90268717	     11.20104304	     -9.13520429	     -0.42490265	      0.92888050	     -1.01859261	     -8.42751953	    -22.58027710	    -17.18974116	    -36.65726020	     -0.63978989	    -10.09632570	      3.16194492	    -10.04978311	     23.43098660	     -4.96670177	     14.95097413	    -22.07718106	     -0.38531950	     -3.87610069	     11.29098205	     -0.25046627	      1.55533953	    -11.91259111	      9.95369106	      5.84919092	    -11.86498879	     -5.60690845	     46.62145050	     89.95437384	      0.00000000	      0.00000000	    -20.00825999	      8.89344862	    -10.71192478	      7.87455994	     89.95437384	      0.00000000	      0.00000000
      0.13000000	     -1.07795717	     11.63580906	     -8.45699759	     -0.41221916	      0.93014452	     -1.02296218	     -6.81595036	    -23.07773206	    -15.96399078	    -39.62264870	     -0.69154568	    -12.37524037	      0.37561358	     -9.02141724	     22.90501962	     -6.30261616	     13.62995060	    -22.05499511	     -0.38493228	     -3.14704869	     12.69441250	     -0.03869389	      1.73400977	    -12.31845180	      9.30698329	      5.12676479	    -11.61551936	     -6.44377799	     45.72920050	     89.95437384	      0.00000000	      0.00000000	    -19.11317602	      9.44878648	    -10.87353076	      7.97205114	     89.95437384	      0.00000000	      0.00000000
